<svg xmlns="http://www.w3.org/2000/svg" width="512" height="512" viewBox="0 0 512 512" version="1.1">
	<path d="M 238 1.025 C 159.472 6.721, 87.201 48.941, 43.119 114.872 C -11.674 196.822, -14.203 302.837, 36.623 387.205 C 51.266 411.513, 74.858 438.599, 96 455.377 C 116.832 471.909, 144.919 487.861, 168.435 496.515 C 181.403 501.288, 205.416 507.332, 220.500 509.620 C 235.414 511.882, 273.512 512.187, 288 510.160 C 334.577 503.645, 374.693 486.876, 412.500 458.119 C 433.542 442.114, 457.878 415.126, 473.473 390.500 C 480.814 378.909, 491.695 356.516, 496.797 342.500 C 503.652 323.669, 509.392 297.707, 510.677 279.715 C 511.022 274.883, 511.686 270.694, 512.152 270.406 C 512.619 270.118, 513 263.357, 513 255.382 C 513 245.970, 512.649 241.099, 512 241.500 C 511.382 241.882, 511 240.136, 511 236.937 C 511 217.059, 501.002 177.460, 489.602 152.189 C 445.433 54.274, 344.004 -6.665, 238 1.025 M 233 62.087 C 198.017 66.570, 165.971 79.728, 137.750 101.195 C 133.488 104.437, 130 107.380, 130 107.734 C 130 108.088, 137.374 115.833, 146.387 124.945 C 159.568 138.270, 163.022 142.341, 164.045 145.756 C 167.411 156.990, 156.898 167.352, 145.540 163.997 C 142.363 163.059, 137.968 159.301, 124.963 146.402 C 115.868 137.381, 108.161 130, 107.838 130 C 106.779 130, 95.136 145.623, 89.836 154.154 C 75.549 177.155, 64.728 208.558, 62.379 233.834 L 61.713 241 85.455 241 C 111.777 241, 114.037 241.439, 118.270 247.373 C 121.382 251.737, 121.382 260.263, 118.270 264.627 C 114.040 270.556, 111.764 271, 85.599 271 L 62 271 62.004 273.750 C 62.017 282.496, 67.966 309.262, 72.729 322 C 80.711 343.348, 92.602 364.155, 105.312 379.014 L 108.125 382.301 125.312 365.233 C 143.728 346.945, 145.371 345.909, 153.515 347.437 C 158.097 348.296, 163.704 353.903, 164.563 358.485 C 166.092 366.632, 165.059 368.267, 146.714 386.741 C 131.778 401.782, 129.797 404.142, 131.196 405.241 C 148.026 418.457, 157.526 424.508, 173.213 432.002 C 191.359 440.669, 214.580 447.274, 234.750 449.505 L 241 450.196 241.004 425.848 C 241.007 403.316, 241.156 401.257, 242.995 398.241 C 248.884 388.582, 263.116 388.582, 269.005 398.241 C 270.844 401.257, 270.993 403.316, 270.996 425.848 L 271 450.196 277.250 449.505 C 297.816 447.231, 320.018 440.912, 338.500 432.072 C 355.215 424.078, 363.542 418.796, 380.804 405.241 C 382.203 404.142, 380.222 401.782, 365.286 386.741 C 346.941 368.267, 345.908 366.632, 347.437 358.485 C 348.296 353.903, 353.903 348.296, 358.485 347.437 C 366.632 345.908, 368.267 346.941, 386.741 365.286 C 401.723 380.164, 404.147 382.200, 405.241 380.823 C 421.407 360.487, 430.567 344.845, 438.419 324.171 C 443.923 309.679, 449.982 283.288, 449.996 273.750 L 450 271 426.401 271 C 400.236 271, 397.960 270.556, 393.730 264.627 C 390.618 260.263, 390.618 251.737, 393.730 247.373 C 397.963 241.439, 400.223 241, 426.545 241 L 450.287 241 449.634 233.969 C 447.288 208.731, 436.370 177.003, 422.167 154.154 C 416.860 145.617, 405.219 130, 404.162 130 C 403.839 130, 396.132 137.381, 387.037 146.402 C 374.032 159.301, 369.637 163.059, 366.460 163.997 C 355.102 167.352, 344.589 156.990, 347.955 145.756 C 348.979 142.339, 352.472 138.227, 365.863 124.671 L 382.500 107.831 378.500 104.398 C 371.649 98.518, 352.924 86.399, 343.247 81.582 C 321.096 70.557, 303.633 65.469, 274.750 61.625 L 271 61.126 271 84.747 C 271 106.554, 270.842 108.695, 268.940 112.624 C 266.764 117.118, 260.768 121, 256 121 C 251.232 121, 245.236 117.118, 243.060 112.624 C 241.158 108.694, 241 106.555, 241 84.684 C 241 71.658, 240.662 61.057, 240.250 61.127 C 239.838 61.197, 236.575 61.629, 233 62.087 M 249.301 153.080 C 246.302 154.564, 244.515 156.370, 243.051 159.395 C 241.071 163.485, 241 165.281, 241 211.415 C 241 252.129, 241.225 259.672, 242.522 262.406 C 243.360 264.170, 258.547 280.064, 276.272 297.724 C 310.978 332.303, 310.832 332.192, 319.515 330.563 C 324.097 329.704, 329.704 324.097, 330.563 319.515 C 332.180 310.897, 332.069 310.747, 300.415 278.963 L 271 249.427 271 206.529 C 271 165.258, 270.922 163.470, 268.940 159.376 C 267.444 156.286, 265.714 154.556, 262.624 153.060 C 257.265 150.466, 254.574 150.470, 249.301 153.080 M 0.400 256.500 C 0.401 264.750, 0.556 267.992, 0.744 263.704 C 0.932 259.417, 0.931 252.667, 0.742 248.704 C 0.552 244.742, 0.399 248.250, 0.400 256.500" stroke="none" fill="black" fill-rule="evenodd"/>
</svg>